<?xml version="1.0" encoding="iso-8859-1"?>
<!-- Uploaded to: SVG Repo, www.svgrepo.com, Generator: SVG Repo Mixer Tools -->
<!DOCTYPE svg PUBLIC "-//W3C//DTD SVG 1.1//EN" "http://www.w3.org/Graphics/SVG/1.1/DTD/svg11.dtd">
<svg fill="#000000" height="800px" width="800px" version="1.1" id="Capa_1" xmlns="http://www.w3.org/2000/svg" xmlns:xlink="http://www.w3.org/1999/xlink" 
	 viewBox="0 0 415.488 415.488" xml:space="preserve">
<g>
	<path d="M120.214,120.346v36.435h-6.696v28.347l94.227-10.859l94.227,10.859V156.78h-6.696v-36.435h6.696l10.293-32.645h-95.255
		V50.674H198.48v37.027h-95.255l10.293,32.645H120.214z M137.942,120.346h139.604v36.435H137.942V120.346z"/>
	<path d="M397.323,171.243V90.501h6.388V73.98h-34.542l-62.02,111.744l-4.524,8.152l-94.881-10.934l-94.881,10.934l-4.524-8.152
		L46.319,73.98H11.777v16.521h6.388v80.742L0,200.155l0.22,0.954c1.493,6.484,9.539,38.828,21.325,38.828
		c11.786,0,19.825-32.345,21.316-38.829l0.22-0.953l-18.156-28.91V90.501h11.668l54.317,97.865l9.013,16.239
		c2.442,39.363,16.033,59.629,31.544,82.738c9.111,13.572,19.229,28.67,27.893,49.123c1.971-0.096,3.842-0.395,5.525-0.92
		c0.06-0.017,0.119-0.035,0.179-0.053c4.944-1.439,8.4-3.029,11.207-5.154c3.858-2.918,6.966-6.41,9.236-10.379l9.182-16.043
		c1.771-3.098,5.059-5.016,8.627-5.033c0.017,0,0.034,0,0.052,0c3.548,0,6.831,1.879,8.627,4.941l2.354,4.02
		c0.898,1.535,1.788,3.123,2.686,4.727c3.267,5.834,6.35,11.346,10.37,14.986c0.026,0.021,0.052,0.045,0.077,0.068
		c5.694,5.266,13.491,8.537,20.348,8.537l0.423-0.004c2.993-0.053,5.796-0.395,8.442-1.008
		c8.537-19.787,18.414-34.529,27.328-47.809c15.511-23.109,29.102-43.375,31.544-82.738l9.013-16.239l54.316-97.865h11.669v80.744
		l-18.156,28.91l0.22,0.953c1.491,6.484,9.53,38.829,21.316,38.829c11.786,0,19.832-32.344,21.325-38.828l0.22-0.954
		L397.323,171.243z M18.165,233.267C13.158,227.886,7.779,212.492,5.034,201l13.131-20.898V233.267z M38.047,201.001
		c-2.74,11.492-8.115,26.888-13.122,32.269v-53.165L38.047,201.001z M152.748,241.515c-5.866,0.316-12.074-3.779-13.877-9.152
		c-1.801-5.363,1.491-9.973,7.346-10.291c5.865-0.309,12.076,3.781,13.875,9.15C161.895,236.597,158.605,241.199,152.748,241.515z
		 M276.617,232.363c-1.803,5.373-8.011,9.469-13.877,9.152c-5.857-0.316-9.146-4.918-7.344-10.293
		c1.799-5.369,8.009-9.459,13.875-9.15C275.126,222.39,278.418,227,276.617,232.363z M390.563,233.267
		c-5.005-5.383-10.38-20.775-13.122-32.267l13.122-20.896V233.267z M397.323,233.267v-53.165L410.454,201
		C407.709,212.492,402.33,227.886,397.323,233.267z"/>
	<path d="M378.788,341.215c-3.681-3.795-6.492-8.141-9.43-12.51c-4.125,4.514-8.075,8.93-13.123,12.441
		c-4.884,3.397-10.497,5.764-16.304,7.018c-3.59,0.773-8.737,1.504-15.968,0.572c-3.318-0.428-6.558-1.283-9.677-2.502
		c-6.449-2.516-11.74-6.357-16.594-11.236c-3.32-3.603-6.188-7.682-9.203-11.535c-4.737,4.883-9.309,10.408-14.936,14.268
		c-7.578,5.199-16.05,7.504-25.113,7.664c-0.204,0.004-0.409,0.006-0.613,0.006c-9.876,0-19.999-4.594-27.137-11.193
		c-6.524-5.908-10.577-14.566-14.977-22.076c-0.782-1.338-1.564-2.674-2.348-4.01c-3.061,5.348-6.121,10.693-9.181,16.043
		c-3.025,5.287-7.038,9.723-11.881,13.387c-4.376,3.313-9.235,5.264-14.446,6.781c-3.179,0.99-6.552,1.438-9.958,1.438
		c-6.516,0-13.154-1.639-18.795-4.256c-8.121-3.77-14.065-10.555-20.321-16.74c-4.393,5.602-8.506,11.641-14.305,15.912
		c-7.742,5.703-17.218,9.18-26.868,9.18c-1.12,0-2.241-0.047-3.364-0.143c-5.679-0.484-10.894-1.832-16.128-3.986
		c-4.681-1.926-8.636-5.029-12.564-8.141c-0.655-0.52-3.024-2.348-3.024-2.348s-3.75,4.299-5.658,6.049
		c-3.018,2.77-6.036,5.291-9.529,7.449c-2.852,1.697-5.764,3.121-8.873,4.293c-3.698,1.393-7.476,2.17-11.352,2.82v0.26
		c1.255,0.055,2.496,0.086,3.73,0.086c3.611,0,7.161-0.266,10.799-0.98c4.473-0.84,8.902-2.67,12.9-4.793
		c1.909-1.014,3.704-2.131,5.496-3.342c0.383-0.258,0.766-0.516,1.147-0.773c0.457-0.309,1.251-0.926,1.251-0.926
		s2.115,1.949,3.041,2.772c3.289,2.92,6.781,5.34,10.583,7.541c7.222,4.18,15.358,5.857,23.55,6.613
		c1.291,0.119,2.592,0.178,3.897,0.178c10.146,0,20.597-3.484,29.025-8.691c1.774-1.096,3.477-2.305,5.115-3.594
		c0.41-0.322,0.82-0.646,1.226-0.977c0.28-0.228,0.353-0.353,0.43-0.353c0.071,0,0.146,0.105,0.39,0.326
		c0.534,0.486,1.089,0.947,1.64,1.412c1.948,1.646,4.016,3.156,6.166,4.527c6.302,4.018,13.23,6.725,20.539,8.213
		c3.697,0.752,7.634,1.141,11.593,1.141c5.536,0,11.118-0.762,16.161-2.359c10.456-3.285,20.29-8.799,27.627-17.07
		c10.819,12.34,27.777,19.746,44.395,19.746c3.776,0,7.535-0.383,11.2-1.176c7.711-1.672,14.961-4.449,21.589-8.777
		c2.089-1.363,4.067-2.885,5.954-4.516c0.474-0.408,0.944-0.818,1.403-1.246c0.683,0.582,1.382,1.144,2.087,1.699
		c1.758,1.385,3.626,2.648,5.537,3.813c9.029,5.502,19.481,8.398,29.983,8.398c3.612,0,7.228-0.344,10.796-1.039
		c12.944-2.527,24.8-9.637,32.93-20.049c5.863,5.746,13.147,9.863,20.95,12.316c4.637,1.455,9.411,2.037,14.215,2.037
		c1.3,0,2.602-0.043,3.903-0.121v-0.303c-0.492-0.072-0.985-0.143-1.478-0.213C396.317,353.59,386.373,349.035,378.788,341.215z"/>
</g>
</svg>