<?xml version="1.0" encoding="iso-8859-1"?>
<!-- Uploaded to: SVG Repo, www.svgrepo.com, Generator: SVG Repo Mixer Tools -->
<svg fill="#000000" height="800px" width="800px" version="1.1" id="Layer_1" xmlns="http://www.w3.org/2000/svg" xmlns:xlink="http://www.w3.org/1999/xlink" 
	 viewBox="0 0 512 512" xml:space="preserve">
<g>
	<g>
		<g>
			<path d="M42.667,238.933c-4.719,0-8.533,3.823-8.533,8.533v17.067c0,4.71,3.814,8.533,8.533,8.533s8.533-3.823,8.533-8.533
				v-17.067C51.2,242.756,47.386,238.933,42.667,238.933z"/>
			<path d="M42.667,187.733c-4.719,0-8.533,3.823-8.533,8.533v17.067c0,4.71,3.814,8.533,8.533,8.533s8.533-3.823,8.533-8.533
				v-17.067C51.2,191.556,47.386,187.733,42.667,187.733z"/>
			<path d="M42.667,341.333c-4.719,0-8.533,3.823-8.533,8.533v17.067c0,4.71,3.814,8.533,8.533,8.533s8.533-3.823,8.533-8.533
				v-17.067C51.2,345.156,47.386,341.333,42.667,341.333z"/>
			<path d="M42.667,290.133c-4.719,0-8.533,3.823-8.533,8.533v17.067c0,4.71,3.814,8.533,8.533,8.533s8.533-3.823,8.533-8.533
				v-17.067C51.2,293.956,47.386,290.133,42.667,290.133z"/>
			<path d="M42.667,443.733c-4.719,0-8.533,3.823-8.533,8.533v17.067c0,4.71,3.814,8.533,8.533,8.533s8.533-3.823,8.533-8.533
				v-17.067C51.2,447.556,47.386,443.733,42.667,443.733z"/>
			<path d="M42.667,392.533c-4.719,0-8.533,3.823-8.533,8.533v17.067c0,4.71,3.814,8.533,8.533,8.533s8.533-3.823,8.533-8.533
				v-17.067C51.2,396.356,47.386,392.533,42.667,392.533z"/>
			<path d="M85.333,238.933c-4.719,0-8.533,3.823-8.533,8.533v17.067c0,4.71,3.814,8.533,8.533,8.533s8.533-3.823,8.533-8.533
				v-17.067C93.867,242.756,90.052,238.933,85.333,238.933z"/>
			<path d="M85.333,341.333c-4.719,0-8.533,3.823-8.533,8.533v17.067c0,4.71,3.814,8.533,8.533,8.533s8.533-3.823,8.533-8.533
				v-17.067C93.867,345.156,90.052,341.333,85.333,341.333z"/>
			<path d="M85.333,290.133c-4.719,0-8.533,3.823-8.533,8.533v17.067c0,4.71,3.814,8.533,8.533,8.533s8.533-3.823,8.533-8.533
				v-17.067C93.867,293.956,90.052,290.133,85.333,290.133z"/>
			<path d="M85.333,392.533c-4.719,0-8.533,3.823-8.533,8.533v17.067c0,4.71,3.814,8.533,8.533,8.533s8.533-3.823,8.533-8.533
				v-17.067C93.867,396.356,90.052,392.533,85.333,392.533z"/>
			<path d="M85.333,443.733c-4.719,0-8.533,3.823-8.533,8.533v17.067c0,4.71,3.814,8.533,8.533,8.533s8.533-3.823,8.533-8.533
				v-17.067C93.867,447.556,90.052,443.733,85.333,443.733z"/>
			<path d="M85.333,187.733c-4.719,0-8.533,3.823-8.533,8.533v17.067c0,4.71,3.814,8.533,8.533,8.533s8.533-3.823,8.533-8.533
				v-17.067C93.867,191.556,90.052,187.733,85.333,187.733z"/>
			<path d="M290.133,332.8c-4.719,0-8.533,3.823-8.533,8.533V358.4c0,4.71,3.814,8.533,8.533,8.533s8.533-3.823,8.533-8.533v-17.067
				C298.667,336.623,294.852,332.8,290.133,332.8z"/>
			<path d="M290.133,281.6c-4.719,0-8.533,3.823-8.533,8.533V307.2c0,4.71,3.814,8.533,8.533,8.533s8.533-3.823,8.533-8.533v-17.067
				C298.667,285.423,294.852,281.6,290.133,281.6z"/>
			<path d="M290.133,179.2c-4.719,0-8.533,3.823-8.533,8.533V204.8c0,4.71,3.814,8.533,8.533,8.533s8.533-3.823,8.533-8.533v-17.067
				C298.667,183.023,294.852,179.2,290.133,179.2z"/>
			<path d="M290.133,230.4c-4.719,0-8.533,3.823-8.533,8.533V256c0,4.71,3.814,8.533,8.533,8.533s8.533-3.823,8.533-8.533v-17.067
				C298.667,234.223,294.852,230.4,290.133,230.4z"/>
			<path d="M290.133,384c-4.719,0-8.533,3.823-8.533,8.533V409.6c0,4.71,3.814,8.533,8.533,8.533s8.533-3.823,8.533-8.533v-17.067
				C298.667,387.823,294.852,384,290.133,384z"/>
			<path d="M290.133,435.2c-4.719,0-8.533,3.823-8.533,8.533V460.8c0,4.71,3.814,8.533,8.533,8.533s8.533-3.823,8.533-8.533v-17.067
				C298.667,439.023,294.852,435.2,290.133,435.2z"/>
			<path d="M324.267,384c-4.719,0-8.533,3.823-8.533,8.533V409.6c0,4.71,3.814,8.533,8.533,8.533c4.719,0,8.533-3.823,8.533-8.533
				v-17.067C332.8,387.823,328.986,384,324.267,384z"/>
			<path d="M324.267,435.2c-4.719,0-8.533,3.823-8.533,8.533V460.8c0,4.71,3.814,8.533,8.533,8.533c4.719,0,8.533-3.823,8.533-8.533
				v-17.067C332.8,439.023,328.986,435.2,324.267,435.2z"/>
			<path d="M324.267,230.4c-4.719,0-8.533,3.823-8.533,8.533V256c0,4.71,3.814,8.533,8.533,8.533c4.719,0,8.533-3.823,8.533-8.533
				v-17.067C332.8,234.223,328.986,230.4,324.267,230.4z"/>
			<path d="M324.267,281.6c-4.719,0-8.533,3.823-8.533,8.533V307.2c0,4.71,3.814,8.533,8.533,8.533c4.719,0,8.533-3.823,8.533-8.533
				v-17.067C332.8,285.423,328.986,281.6,324.267,281.6z"/>
			<path d="M324.267,332.8c-4.719,0-8.533,3.823-8.533,8.533V358.4c0,4.71,3.814,8.533,8.533,8.533c4.719,0,8.533-3.823,8.533-8.533
				v-17.067C332.8,336.623,328.986,332.8,324.267,332.8z"/>
			<path d="M324.267,179.2c-4.719,0-8.533,3.823-8.533,8.533V204.8c0,4.71,3.814,8.533,8.533,8.533c4.719,0,8.533-3.823,8.533-8.533
				v-17.067C332.8,183.023,328.986,179.2,324.267,179.2z"/>
			<path d="M358.4,281.6c-4.719,0-8.533,3.823-8.533,8.533V307.2c0,4.71,3.814,8.533,8.533,8.533s8.533-3.823,8.533-8.533v-17.067
				C366.933,285.423,363.119,281.6,358.4,281.6z"/>
			<path d="M358.4,230.4c-4.719,0-8.533,3.823-8.533,8.533V256c0,4.71,3.814,8.533,8.533,8.533s8.533-3.823,8.533-8.533v-17.067
				C366.933,234.223,363.119,230.4,358.4,230.4z"/>
			<path d="M358.4,435.2c-4.719,0-8.533,3.823-8.533,8.533V460.8c0,4.71,3.814,8.533,8.533,8.533s8.533-3.823,8.533-8.533v-17.067
				C366.933,439.023,363.119,435.2,358.4,435.2z"/>
			<path d="M349.867,187.733V204.8c0,4.71,3.814,8.533,8.533,8.533s8.533-3.823,8.533-8.533v-17.067c0-4.71-3.814-8.533-8.533-8.533
				S349.867,183.023,349.867,187.733z"/>
			<path d="M358.4,332.8c-4.719,0-8.533,3.823-8.533,8.533V358.4c0,4.71,3.814,8.533,8.533,8.533s8.533-3.823,8.533-8.533v-17.067
				C366.933,336.623,363.119,332.8,358.4,332.8z"/>
			<path d="M358.4,384c-4.719,0-8.533,3.823-8.533,8.533V409.6c0,4.71,3.814,8.533,8.533,8.533s8.533-3.823,8.533-8.533v-17.067
				C366.933,387.823,363.119,384,358.4,384z"/>
			<path d="M503.467,110.933H486.4v-25.6c0-4.71-3.814-8.533-8.533-8.533h-8.533V51.2c0-4.71-3.814-8.533-8.533-8.533
				c-4.719,0-8.533,3.823-8.533,8.533v25.6h-8.533V51.2c0-4.71-3.814-8.533-8.533-8.533s-8.533,3.823-8.533,8.533v25.6h-8.533
				c-4.719,0-8.533,3.823-8.533,8.533v25.6h-17.067c-4.719,0-8.533,3.823-8.533,8.533v25.6h-17.067v-25.6
				c0-4.71-3.814-8.533-8.533-8.533h-25.6v-25.6c0-4.71-3.814-8.533-8.533-8.533c-4.719,0-8.533,3.823-8.533,8.533v25.6h-25.6
				c-4.719,0-8.533,3.823-8.533,8.533v25.6h-17.067v-76.8c0-4.71-3.814-8.533-8.533-8.533h-25.6v-25.6
				c0-4.71-3.814-8.533-8.533-8.533h-25.6V8.533c0-4.71-3.814-8.533-8.533-8.533S179.2,3.823,179.2,8.533V25.6h-25.6
				c-4.719,0-8.533,3.823-8.533,8.533v25.6h-25.6c-4.719,0-8.533,3.823-8.533,8.533V153.6H102.4V128c0-4.71-3.814-8.533-8.533-8.533
				h-8.533v-25.6c0-4.71-3.814-8.533-8.533-8.533s-8.533,3.823-8.533,8.533v25.6h-8.533v-25.6c0-4.71-3.814-8.533-8.533-8.533
				s-8.533,3.823-8.533,8.533v25.6h-8.533c-4.719,0-8.533,3.823-8.533,8.533v25.6H8.533C3.814,153.6,0,157.423,0,162.133v341.333
				C0,508.177,3.814,512,8.533,512h110.933H256h136.533h110.933c4.719,0,8.533-3.823,8.533-8.533v-384
				C512,114.756,508.186,110.933,503.467,110.933z M110.933,494.933H17.067V170.667h17.067h59.733h17.067V494.933z M162.133,469.333
				c0,4.71-3.814,8.533-8.533,8.533c-4.719,0-8.533-3.823-8.533-8.533V460.8c0-4.71,3.814-8.533,8.533-8.533
				c4.719,0,8.533,3.823,8.533,8.533V469.333z M162.133,426.667c0,4.71-3.814,8.533-8.533,8.533c-4.719,0-8.533-3.823-8.533-8.533
				V409.6c0-4.71,3.814-8.533,8.533-8.533c4.719,0,8.533,3.823,8.533,8.533V426.667z M162.133,375.467
				c0,4.71-3.814,8.533-8.533,8.533c-4.719,0-8.533-3.823-8.533-8.533V358.4c0-4.71,3.814-8.533,8.533-8.533
				c4.719,0,8.533,3.823,8.533,8.533V375.467z M162.133,324.267c0,4.71-3.814,8.533-8.533,8.533c-4.719,0-8.533-3.823-8.533-8.533
				V307.2c0-4.71,3.814-8.533,8.533-8.533c4.719,0,8.533,3.823,8.533,8.533V324.267z M162.133,273.067
				c0,4.71-3.814,8.533-8.533,8.533c-4.719,0-8.533-3.823-8.533-8.533V256c0-4.71,3.814-8.533,8.533-8.533
				c4.719,0,8.533,3.823,8.533,8.533V273.067z M162.133,221.867c0,4.71-3.814,8.533-8.533,8.533c-4.719,0-8.533-3.823-8.533-8.533
				V204.8c0-4.71,3.814-8.533,8.533-8.533c4.719,0,8.533,3.823,8.533,8.533V221.867z M162.133,170.667
				c0,4.71-3.814,8.533-8.533,8.533c-4.719,0-8.533-3.823-8.533-8.533V153.6c0-4.71,3.814-8.533,8.533-8.533
				c4.719,0,8.533,3.823,8.533,8.533V170.667z M162.133,119.467c0,4.71-3.814,8.533-8.533,8.533c-4.719,0-8.533-3.823-8.533-8.533
				V102.4c0-4.71,3.814-8.533,8.533-8.533c4.719,0,8.533,3.823,8.533,8.533V119.467z M196.267,469.333
				c0,4.71-3.814,8.533-8.533,8.533s-8.533-3.823-8.533-8.533V460.8c0-4.71,3.814-8.533,8.533-8.533s8.533,3.823,8.533,8.533
				V469.333z M196.267,426.667c0,4.71-3.814,8.533-8.533,8.533s-8.533-3.823-8.533-8.533V409.6c0-4.71,3.814-8.533,8.533-8.533
				s8.533,3.823,8.533,8.533V426.667z M196.267,375.467c0,4.71-3.814,8.533-8.533,8.533s-8.533-3.823-8.533-8.533V358.4
				c0-4.71,3.814-8.533,8.533-8.533s8.533,3.823,8.533,8.533V375.467z M196.267,324.267c0,4.71-3.814,8.533-8.533,8.533
				s-8.533-3.823-8.533-8.533V307.2c0-4.71,3.814-8.533,8.533-8.533s8.533,3.823,8.533,8.533V324.267z M196.267,273.067
				c0,4.71-3.814,8.533-8.533,8.533s-8.533-3.823-8.533-8.533V256c0-4.71,3.814-8.533,8.533-8.533s8.533,3.823,8.533,8.533V273.067z
				 M196.267,221.867c0,4.71-3.814,8.533-8.533,8.533s-8.533-3.823-8.533-8.533V204.8c0-4.71,3.814-8.533,8.533-8.533
				s8.533,3.823,8.533,8.533V221.867z M196.267,170.667c0,4.71-3.814,8.533-8.533,8.533s-8.533-3.823-8.533-8.533V153.6
				c0-4.71,3.814-8.533,8.533-8.533s8.533,3.823,8.533,8.533V170.667z M196.267,119.467c0,4.71-3.814,8.533-8.533,8.533
				s-8.533-3.823-8.533-8.533V102.4c0-4.71,3.814-8.533,8.533-8.533s8.533,3.823,8.533,8.533V119.467z M230.4,469.333
				c0,4.71-3.814,8.533-8.533,8.533s-8.533-3.823-8.533-8.533V460.8c0-4.71,3.814-8.533,8.533-8.533s8.533,3.823,8.533,8.533
				V469.333z M230.4,426.667c0,4.71-3.814,8.533-8.533,8.533s-8.533-3.823-8.533-8.533V409.6c0-4.71,3.814-8.533,8.533-8.533
				s8.533,3.823,8.533,8.533V426.667z M230.4,375.467c0,4.71-3.814,8.533-8.533,8.533s-8.533-3.823-8.533-8.533V358.4
				c0-4.71,3.814-8.533,8.533-8.533s8.533,3.823,8.533,8.533V375.467z M230.4,324.267c0,4.71-3.814,8.533-8.533,8.533
				s-8.533-3.823-8.533-8.533V307.2c0-4.71,3.814-8.533,8.533-8.533s8.533,3.823,8.533,8.533V324.267z M230.4,273.067
				c0,4.71-3.814,8.533-8.533,8.533s-8.533-3.823-8.533-8.533V256c0-4.71,3.814-8.533,8.533-8.533S230.4,251.29,230.4,256V273.067z
				 M230.4,221.867c0,4.71-3.814,8.533-8.533,8.533s-8.533-3.823-8.533-8.533V204.8c0-4.71,3.814-8.533,8.533-8.533
				s8.533,3.823,8.533,8.533V221.867z M230.4,170.667c0,4.71-3.814,8.533-8.533,8.533s-8.533-3.823-8.533-8.533V153.6
				c0-4.71,3.814-8.533,8.533-8.533s8.533,3.823,8.533,8.533V170.667z M230.4,119.467c0,4.71-3.814,8.533-8.533,8.533
				s-8.533-3.823-8.533-8.533V102.4c0-4.71,3.814-8.533,8.533-8.533s8.533,3.823,8.533,8.533V119.467z M384,494.933H264.533v-332.8
				h25.6H358.4H384V494.933z M435.2,469.333c0,4.71-3.814,8.533-8.533,8.533s-8.533-3.823-8.533-8.533V460.8
				c0-4.71,3.814-8.533,8.533-8.533s8.533,3.823,8.533,8.533V469.333z M435.2,426.667c0,4.71-3.814,8.533-8.533,8.533
				s-8.533-3.823-8.533-8.533V409.6c0-4.71,3.814-8.533,8.533-8.533s8.533,3.823,8.533,8.533V426.667z M435.2,375.467
				c0,4.71-3.814,8.533-8.533,8.533s-8.533-3.823-8.533-8.533V358.4c0-4.71,3.814-8.533,8.533-8.533s8.533,3.823,8.533,8.533
				V375.467z M435.2,324.267c0,4.71-3.814,8.533-8.533,8.533s-8.533-3.823-8.533-8.533V307.2c0-4.71,3.814-8.533,8.533-8.533
				s8.533,3.823,8.533,8.533V324.267z M435.2,273.067c0,4.71-3.814,8.533-8.533,8.533s-8.533-3.823-8.533-8.533V256
				c0-4.71,3.814-8.533,8.533-8.533S435.2,251.29,435.2,256V273.067z M435.2,221.867c0,4.71-3.814,8.533-8.533,8.533
				s-8.533-3.823-8.533-8.533V204.8c0-4.71,3.814-8.533,8.533-8.533s8.533,3.823,8.533,8.533V221.867z M435.2,170.667
				c0,4.71-3.814,8.533-8.533,8.533s-8.533-3.823-8.533-8.533V153.6c0-4.71,3.814-8.533,8.533-8.533s8.533,3.823,8.533,8.533
				V170.667z M477.867,469.333c0,4.71-3.814,8.533-8.533,8.533s-8.533-3.823-8.533-8.533V460.8c0-4.71,3.814-8.533,8.533-8.533
				s8.533,3.823,8.533,8.533V469.333z M477.867,426.667c0,4.71-3.814,8.533-8.533,8.533s-8.533-3.823-8.533-8.533V409.6
				c0-4.71,3.814-8.533,8.533-8.533s8.533,3.823,8.533,8.533V426.667z M477.867,375.467c0,4.71-3.814,8.533-8.533,8.533
				s-8.533-3.823-8.533-8.533V358.4c0-4.71,3.814-8.533,8.533-8.533s8.533,3.823,8.533,8.533V375.467z M477.867,324.267
				c0,4.71-3.814,8.533-8.533,8.533s-8.533-3.823-8.533-8.533V307.2c0-4.71,3.814-8.533,8.533-8.533s8.533,3.823,8.533,8.533
				V324.267z M477.867,273.067c0,4.71-3.814,8.533-8.533,8.533s-8.533-3.823-8.533-8.533V256c0-4.71,3.814-8.533,8.533-8.533
				s8.533,3.823,8.533,8.533V273.067z M477.867,221.867c0,4.71-3.814,8.533-8.533,8.533s-8.533-3.823-8.533-8.533V204.8
				c0-4.71,3.814-8.533,8.533-8.533s8.533,3.823,8.533,8.533V221.867z M477.867,170.667c0,4.71-3.814,8.533-8.533,8.533
				s-8.533-3.823-8.533-8.533V153.6c0-4.71,3.814-8.533,8.533-8.533s8.533,3.823,8.533,8.533V170.667z"/>
		</g>
	</g>
</g>
</svg>