<?xml version="1.0" encoding="iso-8859-1"?>
<!-- Uploaded to: SVG Repo, www.svgrepo.com, Generator: SVG Repo Mixer Tools -->
<!DOCTYPE svg PUBLIC "-//W3C//DTD SVG 1.1//EN" "http://www.w3.org/Graphics/SVG/1.1/DTD/svg11.dtd">
<svg fill="#000000" height="800px" width="800px" version="1.1" id="Capa_1" xmlns="http://www.w3.org/2000/svg" xmlns:xlink="http://www.w3.org/1999/xlink" 
	 viewBox="0 0 496.738 496.738" xml:space="preserve">
<path d="M423.892,306.06L312.667,200.398c-0.945-0.899-2.248-1.314-3.543-1.124l-28.317,4.148c0.004-0.188,0.015-0.373,0.015-0.562
	c0-12.843-8.033-23.838-19.336-28.243V4.251c0-2.153-1.61-3.967-3.749-4.22c-2.144-0.259-4.129,1.132-4.633,3.226L217.21,152.412
	c-0.306,1.269-0.011,2.607,0.798,3.63l16.622,21.022c-8.645,5.344-14.421,14.907-14.421,25.796c0,2.226,0.248,4.395,0.706,6.485
	L73.648,294.37c-1.865,1.077-2.63,3.378-1.78,5.357c0.685,1.595,2.244,2.574,3.905,2.574c0.399,0,0.805-0.057,1.206-0.175
	l147.119-43.493c1.251-0.37,2.263-1.294,2.745-2.507l10.35-26.054c0.251,0.124,0.507,0.24,0.763,0.357l-45.102,261.335
	c-0.213,1.235,0.13,2.501,0.938,3.46c0.807,0.959,1.997,1.512,3.251,1.512h104.597c1.254,0,2.443-0.553,3.251-1.512
	c0.808-0.958,1.15-2.225,0.938-3.46l-44.929-260.432c3.102-1.135,5.963-2.768,8.498-4.793l149.443,86.281
	c0.667,0.385,1.398,0.57,2.122,0.57c1.302,0,2.579-0.598,3.407-1.707C425.658,309.96,425.453,307.543,423.892,306.06z
	 M225.958,152.391l27.028-112.314v132.586c-0.815-0.066-1.638-0.109-2.47-0.109c-2.698,0-5.313,0.359-7.805,1.024L225.958,152.391z
	 M250.516,181.054c12.023,0,21.806,9.782,21.806,21.807c0,12.023-9.782,21.806-21.806,21.806c-12.024,0-21.806-9.782-21.806-21.806
	C228.71,190.836,238.492,181.054,250.516,181.054z M219.706,251.068l-110.781,32.75l115.017-66.405
	c1.593,2.898,3.647,5.507,6.062,7.731L219.706,251.068z M291.897,461.019h-36.556c-2.348,0-4.25,1.903-4.25,4.25
	s1.902,4.25,4.25,4.25h38.021l3.23,18.719h-94.504l18.765-108.732h9.488c2.347,0,4.25-1.903,4.25-4.25c0-2.347-1.903-4.25-4.25-4.25
	h-8.021l23.843-138.156c1.422,0.206,2.875,0.317,4.353,0.317c0.693,0,1.378-0.032,2.06-0.078L291.897,461.019z M275.368,220.173
	c1.688-2.416,3.033-5.087,3.964-7.944l28.98-4.245l83.752,79.563L275.368,220.173z"/>
</svg>